# xmcd
#
# Track frame offsets:
#  150
#  13742
#  28085
#  39103
#  54934
#  67059
#  83974
#  101047
#  117930
#  130759
#  145698
#
# Disc length: 2209 seconds
#
# Revision: 0
# Processed by: cddbd v1.5.2PL0 Copyright (c) Steve Scherf et al.
# Submitted via: AltoMP3_Maker 3.0
#
DISCID=8e089f0b
DTITLE=Cuby and The Blizzards - Praise The Blues
DYEAR=1900
DGENRE=
TTITLE0=Nothin' but trouble
TTITLE1=No place like home
TTITLE2=Understanding
TTITLE3=Twenty-four hours of fear
TTITLE4=The hammond sings the blues
TTITLE5=The bog boat
TTITLE6=Mr Highway man
TTITLE7=I'm in your corner
TTITLE8=Swinging boogie
TTITLE9=Early grave
TTITLE10=Little red rooster
EXTD=
EXTT0=
EXTT1=
EXTT2=
EXTT3=
EXTT4=
EXTT5=
EXTT6=
EXTT7=
EXTT8=
EXTT9=
EXTT10=
PLAYORDER=
